<svg xmlns="http://www.w3.org/2000/svg" viewBox="0 0 152.2 38.33"><defs><style>.cls-1{fill:#fff;}</style></defs><title>logo</title><g id="Layer_2" data-name="Layer 2"><g id="Layer_1-2" data-name="Layer 1"><path class="cls-1" d="M20.92,27c-2.12,5.14-7.76,7.13-11.4,7.13C3.6,34.15.76,31.62.76,24.72s3.48-19.93,14-19.93c3.76,0,6.68,1.42,6.68,5.14,0,2-.76,3.53-2.8,3.53a2.94,2.94,0,0,1-2.28-1,4.24,4.24,0,0,0,1.84-3.53,2.17,2.17,0,0,0-2.44-2.34c-4.4,0-8.32,10.08-8.32,17.9,0,3.53,1,6,4.8,6A9.84,9.84,0,0,0,20,26.64Z" transform="translate(-0.76 -4.79)"/><path class="cls-1" d="M29.92,17.71c-1.56,0-2.8,2.34-3,3.37L24.12,33.54H18.36l5.8-26.06,5.92-.77-2.16,9.66a6.06,6.06,0,0,1,4.68-2.15c2.56,0,4.44,1.26,4.44,4.33s-1.92,7.74-1.92,9.89a1.41,1.41,0,0,0,1.6,1.61c1.76,0,2.48-1.38,3.36-3.37h1.68c-2.24,6.29-5.32,7.09-7.44,7.09-3.48,0-4.72-2.15-4.72-4.33,0-2.61,1.8-7.32,1.8-9.77C31.4,18.4,30.92,17.71,29.92,17.71Z" transform="translate(-0.76 -4.79)"/><path class="cls-1" d="M59.28,14.37l-2.88,13a5.1,5.1,0,0,0-.16,1.23,1.45,1.45,0,0,0,1.64,1.65c1.56,0,2.64-1.69,3.24-3.6H62.8c-2.28,6.25-5.88,7.09-8,7.09a3.61,3.61,0,0,1-3.92-3.53,7.27,7.27,0,0,1-6,3.53c-2.72,0-5.32-1.61-5.32-6.17,0-5.17,3.32-13.42,10.28-13.42,2.28,0,3.24.84,3.24,2v.27l.44-2ZM45.48,27.06c0,3,1.28,3,2,3a3.94,3.94,0,0,0,3.32-3.37L52.72,18a1.52,1.52,0,0,0-1.64-1.46C47.68,16.56,45.48,23.46,45.48,27.06Z" transform="translate(-0.76 -4.79)"/><path class="cls-1" d="M71.32,6.71l-4.6,20.7a5.1,5.1,0,0,0-.16,1.23c0,1.07.52,1.42,1.64,1.42,1.56,0,3-1.46,3.6-3.37h1.68c-2.28,6.25-6.24,7.09-8.4,7.09-2.4,0-4.28-1.38-4.28-4.6a12.06,12.06,0,0,1,.32-2.49L65.4,7.48Z" transform="translate(-0.76 -4.79)"/><path class="cls-1" d="M82,6.71l-4.6,20.7a5.1,5.1,0,0,0-.16,1.23c0,1.07.52,1.42,1.64,1.42,1.56,0,3-1.46,3.6-3.37h1.68c-2.28,6.25-6.24,7.09-8.4,7.09-2.4,0-4.28-1.38-4.28-4.6a12.06,12.06,0,0,1,.32-2.49l4.28-19.2Z" transform="translate(-0.76 -4.79)"/><path class="cls-1" d="M90.76,30.55c3.16,0,5.08-1.69,7.08-3.87H99.2c-2.28,3.53-5.68,7.09-11,7.09C84.44,33.77,82,32,82,27.68S84.56,14,92.76,14c3.56,0,4.4,1.76,4.4,3.68,0,4.41-4.4,7.82-9.2,8.09,0,.54-.08,1.07-.08,1.53C87.88,29.94,88.84,30.55,90.76,30.55Zm2.32-14.49c-2,0-4,4.1-4.8,7.9a6.52,6.52,0,0,0,5.8-6.32C94.08,16.67,93.84,16.06,93.08,16.06Z" transform="translate(-0.76 -4.79)"/><path class="cls-1" d="M107.92,17.71c-1.44,0-2.52,1.61-3.12,3.53l-2.72,12.3H96.32l4.24-19.17h5.76l-.44,2a6.06,6.06,0,0,1,4.68-2.15c2.56,0,4.44,1.26,4.44,4.33s-1.92,7.74-1.92,9.89a1.41,1.41,0,0,0,1.6,1.61c1.76,0,2.48-1.38,3.36-3.37h1.68c-2.24,6.29-5.32,7.09-7.44,7.09-3.48,0-4.72-2.15-4.72-4.33,0-2.61,1.8-7.32,1.8-9.77C109.36,18.4,108.88,17.71,107.92,17.71Z" transform="translate(-0.76 -4.79)"/><path class="cls-1" d="M137.23,14.37l-4,17.79c2.44-.84,3.92-2.15,5-5.48H140c-1.56,5.06-4.6,6.52-7.08,7.17l-.6,2.76c-1.2,5.48-4.56,6.52-7.2,6.52-2.44,0-4.48-1.23-4.48-3.72,0-3.22,3.52-4.83,6.52-5.71l.48-2a6.54,6.54,0,0,1-4.8,2.11c-2.72,0-5.32-1.61-5.32-6.17,0-5.17,3.32-13.42,10.28-13.42,2.28,0,3.24.84,3.24,2v.23l.44-2Zm-13,25.76c.84,0,1.8-1.15,2.32-3.41l.24-1.11c-2,.73-3.92,1.73-3.92,3.26A1.33,1.33,0,0,0,124.2,40.13Zm-.76-13.07c0,3,1.28,3,2,3a3.84,3.84,0,0,0,3.2-3l2-9.08A1.55,1.55,0,0,0,129,16.56C125.64,16.56,123.44,23.46,123.44,27.06Z" transform="translate(-0.76 -4.79)"/><path class="cls-1" d="M146.16,30.13a8.34,8.34,0,0,0,4.72-2c-.84,4.37-3.72,5.67-6.92,5.67-3.72,0-6.2-1.76-6.2-6.09S140.36,14,148.56,14c3.56,0,4.4,1.76,4.4,3.68,0,4.45-4.4,7.82-9.2,8.09,0,.38-.08.81-.08,1.15C143.68,29.36,144.76,30.13,146.16,30.13Zm2.72-14.07c-2,0-4,4.25-4.84,7.9a6.47,6.47,0,0,0,5.84-6.32C149.88,16.67,149.64,16.06,148.88,16.06Z" transform="translate(-0.76 -4.79)"/></g></g></svg>